<svg width="202" height="202" viewBox="0 0 202 202" fill="none" xmlns="http://www.w3.org/2000/svg">
<rect width="201.208" height="201.208" rx="100.604" transform="matrix(1 -8.74228e-08 -8.74228e-08 -1 0 201.208)" fill="#232B6B"/>
<path d="M69.3476 123.161L91.6555 100.853L100.877 91.4533L112.496 79.8346L74.2318 79.8346C72.4761 79.8346 71.0034 79.2397 69.8136 78.05C68.6239 76.8602 68.0311 75.3896 68.0352 73.638C68.0352 71.8823 68.6301 70.4096 69.8198 69.2198C71.0096 68.0301 72.4803 67.4372 74.2318 67.4414L112.496 67.4414L100.877 55.8226C99.638 54.5833 99.0183 53.1374 99.0183 51.485C99.0183 49.8325 99.638 48.3867 100.877 47.1473C102.117 45.908 103.563 45.2615 105.215 45.2078C106.867 45.1541 108.313 45.749 109.553 46.9924L131.86 69.3004C132.48 69.92 132.918 70.5913 133.174 71.3143C133.43 72.0372 133.56 72.8118 133.565 73.638C133.565 74.4642 133.434 75.2388 133.174 75.9617C132.914 76.6847 132.476 77.356 131.86 77.9756L109.553 100.283L100.331 109.683L88.7121 121.302L126.976 121.302C128.728 121.298 130.198 121.891 131.388 123.08C132.578 124.27 133.173 125.743 133.173 127.499C133.177 129.25 132.584 130.721 131.394 131.911C130.205 133.1 128.732 133.695 126.976 133.695L88.7121 133.695L100.331 145.314C101.57 146.549 102.19 148.02 102.19 149.726C102.19 151.432 101.57 152.905 100.331 154.144C99.0914 155.384 97.6455 156.003 95.9931 156.003C94.3407 156.003 92.8948 155.384 91.6555 154.144L69.3476 131.836C68.7321 131.217 68.2942 130.545 68.0339 129.822C67.7737 129.099 67.6436 128.325 67.6436 127.499C67.6477 126.672 67.7778 125.898 68.0339 125.175C68.2901 124.452 68.728 123.781 69.3476 123.161Z" fill="white"/>
</svg>
